<svg width="24" height="24" viewBox="0 0 24 24" fill="none" xmlns="http://www.w3.org/2000/svg">
<rect width="24" height="24" transform="translate(24 24) rotate(180)" fill="#F5F5F5"/>
<path d="M16.4992 15.4999L16.4992 6.5L9.49918 6.5L9.49918 8L8.49918 8L8.49918 6.5C8.49918 5.94772 8.94689 5.5 9.49918 5.5L16.4992 5.5C17.0515 5.5 17.4992 5.94771 17.4992 6.5L17.4992 15.4999C17.4992 16.0521 17.0515 16.4998 16.4992 16.4999L15.0002 16.4999L15.0002 15.4999L16.4992 15.4999Z" fill="#181818"/>
<path fill-rule="evenodd" clip-rule="evenodd" d="M10.4993 16.7926L10.4993 14.5L8.20665 14.5L10.4993 16.7926ZM11.4993 17.5L11.2066 17.5L10.4993 16.7926V18C10.4993 18.1345 10.5525 18.2567 10.639 18.3465L6.65313 14.3607C6.55845 14.2697 6.49954 14.1417 6.49954 14L6.49954 8.5C6.49954 7.94771 6.94726 7.5 7.49954 7.5L14.4995 7.5C15.0518 7.5 15.4995 7.94772 15.4995 8.5V17.4999C15.4995 18.0521 15.0518 18.4998 14.4996 18.4999L10.9996 18.5C11.2757 18.5 11.4993 18.2761 11.4993 18V17.5ZM11.4993 17.5V14C11.4993 13.7239 11.2754 13.5 10.9993 13.5L7.49954 13.5L7.49954 8.5L14.4995 8.5V17.4999L11.4993 17.5ZM10.9996 18.5C10.8669 18.5 10.7398 18.4473 10.646 18.3536L10.639 18.3465C10.73 18.4411 10.858 18.5 10.9996 18.5Z" fill="#181818"/>
<path d="M10.9996 18.5C11.2757 18.5 11.4993 18.2761 11.4993 18V17.5L11.2066 17.5L10.4993 16.7926V18C10.4993 18.1345 10.5525 18.2567 10.639 18.3465L10.646 18.3536C10.7398 18.4473 10.8669 18.5 10.9996 18.5Z" fill="#181818"/>
</svg>
