<svg width="24" height="24" viewBox="0 0 24 24" fill="none" xmlns="http://www.w3.org/2000/svg">
<g clip-path="url(#clip0_124_116)">
<path d="M21 19.6108L16.2512 14.862C17.3923 13.4921 17.9613 11.7349 17.8399 9.95614C17.7185 8.17735 16.9159 6.51385 15.5992 5.31169C14.2825 4.10954 12.5531 3.46128 10.7706 3.50179C8.98813 3.5423 7.28989 4.26844 6.02916 5.52916C4.76844 6.78989 4.0423 8.48813 4.00179 10.2706C3.96128 12.0531 4.60954 13.7825 5.81169 15.0992C7.01385 16.4159 8.67735 17.2185 10.4561 17.3399C12.2349 17.4613 13.9921 16.8923 15.362 15.7512L20.1108 20.5L21 19.6108ZM5.27987 10.4391C5.27987 9.31982 5.61178 8.22566 6.23362 7.295C6.85547 6.36435 7.73932 5.63899 8.77341 5.21065C9.80751 4.78232 10.9454 4.67024 12.0432 4.88861C13.141 5.10697 14.1493 5.64596 14.9408 6.43742C15.7323 7.22888 16.2713 8.23726 16.4896 9.33505C16.708 10.4328 16.5959 11.5707 16.1676 12.6048C15.7392 13.6389 15.0139 14.5228 14.0832 15.1446C13.1526 15.7665 12.0584 16.0984 10.9391 16.0984C9.4387 16.0967 8.00021 15.4999 6.93926 14.439C5.87831 13.378 5.28153 11.9395 5.27987 10.4391Z" fill="#999999"/>
</g>
<defs>
<clipPath id="clip0_124_116">
<rect width="24" height="24" fill="white"/>
</clipPath>
</defs>
</svg>
