<svg width="12" height="13" viewBox="0 0 12 13" fill="none" xmlns="http://www.w3.org/2000/svg">
<path d="M10.1763 1.34023C8.70446 -0.131641 6.30758 -0.131641 4.83727 1.34023L0.759145 5.41523C0.732583 5.4418 0.71852 5.47773 0.71852 5.51523C0.71852 5.55273 0.732583 5.58867 0.759145 5.61523L1.33571 6.1918C1.36206 6.21804 1.39774 6.23277 1.43493 6.23277C1.47212 6.23277 1.50779 6.21804 1.53415 6.1918L5.61227 2.1168C6.11852 1.61055 6.79196 1.33242 7.50758 1.33242C8.22321 1.33242 8.89665 1.61055 9.40133 2.1168C9.90758 2.62305 10.1857 3.29648 10.1857 4.01055C10.1857 4.72617 9.90758 5.39805 9.40133 5.9043L5.24508 10.059L4.57165 10.7324C3.94196 11.3621 2.91852 11.3621 2.28883 10.7324C1.98415 10.4277 1.81696 10.023 1.81696 9.5918C1.81696 9.16055 1.98415 8.75586 2.28883 8.45117L6.41227 4.3293C6.51696 4.22617 6.65446 4.16836 6.80133 4.16836H6.8029C6.94977 4.16836 7.08571 4.22617 7.18883 4.3293C7.29352 4.43398 7.34977 4.57148 7.34977 4.71836C7.34977 4.86367 7.29196 5.00117 7.18883 5.1043L3.81852 8.47149C3.79196 8.49805 3.7779 8.53399 3.7779 8.57149C3.7779 8.60899 3.79196 8.64492 3.81852 8.67148L4.39508 9.24805C4.42144 9.27429 4.45711 9.28902 4.4943 9.28902C4.53149 9.28902 4.56717 9.27429 4.59352 9.24805L7.96227 5.8793C8.27321 5.56836 8.44352 5.15586 8.44352 4.7168C8.44352 4.27773 8.27165 3.86367 7.96227 3.5543C7.32008 2.91211 6.27633 2.91367 5.63415 3.5543L5.23415 3.95586L1.51227 7.67617C1.25966 7.9273 1.05942 8.22608 0.923169 8.55518C0.786914 8.88429 0.717353 9.23717 0.71852 9.59336C0.71852 10.3168 1.00133 10.9965 1.51227 11.5074C2.04196 12.0355 2.73571 12.2996 3.42946 12.2996C4.12321 12.2996 4.81696 12.0355 5.34508 11.5074L10.1763 6.6793C10.8873 5.9668 11.281 5.01836 11.281 4.01055C11.2826 3.00117 10.8888 2.05273 10.1763 1.34023Z" fill="#999999"/>
</svg>
